<?xml version="1.0" encoding="UTF-8" standalone="no"?>
<!-- Created with Inkscape (http://www.inkscape.org/) -->

<svg
   width="42.171871mm"
   height="38.195564mm"
   viewBox="0 0 42.171872 38.195564"
   version="1.1"
   id="svg1"
   xml:space="preserve"
   xmlns="http://www.w3.org/2000/svg"
   xmlns:svg="http://www.w3.org/2000/svg"><defs
     id="defs1" /><g
     id="layer1"
     transform="translate(-85.457857,-215.69334)"><ellipse
       style="fill:#fefefe;fill-opacity:1;stroke:none;stroke-width:0.3;stroke-dasharray:none;stroke-opacity:1"
       id="path3"
       cx="106.54379"
       cy="234.79112"
       rx="21.085936"
       ry="19.097782" /><path
       style="fill:#436881;fill-opacity:1;stroke:none;stroke-width:0.708803"
       d="m 95.919903,227.58796 c 0.05546,-0.15525 1.2208,-0.18532 1.890745,-0.18532 l 3.784852,0.97089 0.88746,0.36736 1.35729,0.39361 0.88746,0.0787 0.46984,0.0525 0.46983,0.15744 h 0.31322 l 0.13593,-0.0578 0.32299,-0.33399 0.10613,-0.1438 -0.005,-0.7561 -0.69212,-0.81177 -0.0641,-0.62555 0.026,-0.48544 0.0914,-0.17056 0.26101,-0.31489 v -0.0787 l -0.0914,-0.0656 -0.37847,0.28863 -0.57424,0.48545 -0.35237,0.17057 -0.87441,0.0131 -0.77,-0.28864 -0.80916,-0.74786 0.0131,-0.24928 0.60035,0.34113 0.61338,-0.0131 1.00492,-0.74785 0.54813,-0.47233 0.32628,-0.17055 0.48289,0.0131 0.33932,0.20992 0.37847,0.36736 0.0391,0.32801 0.96577,-0.0394 0.23492,0.0525 0.60033,0.44608 0.22187,0.32801 0.0391,0.74785 0.32628,0.48544 v 0.14432 l -0.13051,0.0918 -0.0522,0.5904 -0.0567,0.18527 -0.17824,0.10338 -0.60034,-0.0131 -0.20881,0.18369 0.0131,0.60352 0.27406,0.30177 0.36543,0.0131 2.50576,-1.94178 1.05712,-1.19394 1.68357,-1.52194 0.66176,-0.62128 0.1758,-0.11338 c 0.61947,-0.24611 1.29048,-0.39248 1.95532,-0.48551 0.0753,0.0445 0.10142,0.10134 0.0783,0.17056 0.002,0.0499 -0.0327,0.0936 -0.1044,0.1312 l -0.62645,0.30177 c 0.18017,-0.0667 0.4475,-0.14406 0.48974,-0.12113 0.054,0.0136 -0.0251,0.20094 -0.15041,0.27857 -0.16966,0.0853 -0.34802,0.15088 -0.53509,0.1968 l -0.56118,0.10496 -0.30017,0.0918 -4.86797,5.72038 -0.31323,0.57728 v 1.19394 l -0.80915,2.25666 -0.11746,0.66913 0.46983,0.73473 1.37034,-0.10496 2.16645,-0.0263 1.13542,0.1968 0.56119,0.53792 0.0391,0.85282 -0.70475,0.80033 -1.55305,0.64288 -0.80916,0.17056 -3.21051,0.0656 -1.49601,0.0741 c 5e-4,0.066 -0.0587,0.0752 -0.11904,0.0801 -1.40949,0.0919 -2.7396,0.11699 -4.00988,0.0689 -0.10005,-0.0612 -0.16636,-0.27751 -0.14356,-0.31488 0.0383,-0.0901 0.52204,-0.33238 0.83526,-0.40672 l 1.69661,0.0131 c 0.27556,-0.17706 0.57573,-0.31701 0.90052,-0.41985 0.27872,-0.0582 0.52668,-0.067 0.74389,-0.0262 0.14255,0.0496 0.27279,0.12395 0.39073,0.22303 0.10467,-0.008 0.20934,-0.003 0.31402,0.0131 l 3.57593,-1.4957 0.41763,-0.11808 0.5612,-0.0394 0.0783,-0.13121 h -0.39152 l -0.33932,0.0262 -0.48289,0.0524 -3.30186,1.41698 -0.27407,0.0131 -0.49594,-0.28864 -0.76999,0.0394 -3.62815,-2.00739 -0.18271,0.0393 0.15661,0.14431 3.33205,1.96229 c 0.0973,0.0697 -0.36603,0.36679 -0.68273,0.45183 -0.39152,0.0437 -0.78305,0.035 -1.17457,-0.0262 -0.65255,-0.005 -1.30509,-0.1137 -1.95763,-0.328 -0.42633,-0.0918 -0.83526,-0.25366 -1.22678,-0.48545 -0.42633,-0.24928 -0.765646,-0.56854 -1.018015,-0.95777 l -0.117474,-0.22304 c -0.0479,-0.21867 -0.0435,-0.41984 0.0131,-0.60353 -0.009,-0.16181 0.0696,-0.32363 0.234935,-0.48544 0.134908,-0.19243 0.33936,-0.29739 0.613434,-0.31488 0.23056,-0.0393 0.58294,-0.0437 1.05712,-0.0131 0.88311,0 1.73141,0.17493 2.54492,0.5248 l 0.62644,0.1312 c 0.35672,-0.32363 0.71345,-0.62977 1.07017,-0.9184 0.0948,-0.18931 0.16594,-0.37062 0.26103,-0.52482 -0.0174,-0.24928 0,-0.49856 0.0522,-0.74784 -0.38718,-0.62977 -0.68736,-1.32951 -0.90052,-2.09923 -0.16097,-0.10059 -0.33932,-0.23616 -0.53508,-0.40672 l -5.116031,-2.13858 -1.174597,-0.61665 -0.104408,-0.0656 c -0.117457,0.0612 -0.226214,0.0612 -0.32627,0 -0.0056,0.0409 -0.04038,0.0803 -0.104409,0.11808 h -0.783051 c -0.352374,-0.07 -0.824925,-0.22794 -0.859728,-0.49689 z"
       id="path2" /><text
       xml:space="preserve"
       style="font-style:italic;font-weight:bold;font-size:4.37737px;font-family:'Open Sans';-inkscape-font-specification:'Open Sans Bold Italic';text-align:center;writing-mode:lr-tb;direction:ltr;text-anchor:middle;fill:#436881;fill-opacity:1;stroke:none;stroke-width:0.992661"
       x="105.72881"
       y="246.76161"
       id="text2"
       transform="scale(1.0069346,0.99311315)"><tspan
         id="tspan2"
         style="font-style:normal;font-variant:normal;font-weight:normal;font-stretch:normal;font-size:4.37737px;font-family:'Segoe Print';-inkscape-font-specification:'Segoe Print';fill:#436881;fill-opacity:1;stroke-width:0.992661"
         x="105.72881"
         y="246.76161">Define Pilates</tspan></text></g></svg>
